<svg width="21" height="21" viewBox="0 0 21 21" fill="none" xmlns="http://www.w3.org/2000/svg">
<path d="M11.74 1.32007C11.6462 1.21695 11.532 1.13456 11.4046 1.07818C11.2771 1.0218 11.1393 0.992676 11 0.992676C10.8606 0.992676 10.7228 1.0218 10.5954 1.07818C10.4679 1.13456 10.3537 1.21695 10.26 1.32007L1.25997 11.3201C1.12726 11.4632 1.03932 11.642 1.00698 11.8344C0.974651 12.0269 0.999341 12.2246 1.07801 12.4032C1.15668 12.5818 1.28589 12.7335 1.44972 12.8395C1.61354 12.9456 1.80482 13.0014 1.99997 13.0001H3.99997V20.0001C3.99997 20.2653 4.10533 20.5196 4.29287 20.7072C4.4804 20.8947 4.73476 21.0001 4.99997 21.0001H17C17.2652 21.0001 17.5195 20.8947 17.7071 20.7072C17.8946 20.5196 18 20.2653 18 20.0001V13.0001H20C20.2652 13.0001 20.5195 12.8947 20.7071 12.7072C20.8946 12.5196 21 12.2653 21 12.0001C21.0018 11.7488 20.909 11.506 20.74 11.3201L11.74 1.32007Z" fill="white"/>
</svg>
