<svg width="24" height="24" viewBox="0 0 24 24" fill="none" xmlns="http://www.w3.org/2000/svg">
<path d="M12.7099 2.28994C12.617 2.19621 12.5064 2.12182 12.3845 2.07105C12.2627 2.02028 12.132 1.99414 11.9999 1.99414C11.8679 1.99414 11.7372 2.02028 11.6154 2.07105C11.4935 2.12182 11.3829 2.19621 11.2899 2.28994L2.28994 11.2899C2.19621 11.3829 2.12182 11.4935 2.07105 11.6154C2.02028 11.7372 1.99414 11.8679 1.99414 11.9999C1.99414 12.132 2.02028 12.2627 2.07105 12.3845C2.12182 12.5064 2.19621 12.617 2.28994 12.7099C2.38338 12.8026 2.49419 12.8759 2.61603 12.9257C2.73787 12.9755 2.86833 13.0007 2.99994 12.9999H3.99994V19.9999C3.99994 20.5304 4.21065 21.0391 4.58573 21.4142C4.9608 21.7892 5.46951 21.9999 5.99994 21.9999H17.9999C18.5304 21.9999 19.0391 21.7892 19.4142 21.4142C19.7892 21.0391 19.9999 20.5304 19.9999 19.9999V12.9999H20.9999C21.2652 12.9999 21.5195 12.8946 21.707 12.707C21.8946 12.5195 21.9999 12.2652 21.9999 11.9999C22.0007 11.8683 21.9755 11.7379 21.9257 11.616C21.8759 11.4942 21.8026 11.3834 21.7099 11.2899L12.7099 2.28994ZM5.99994 19.9999V10.4099L11.9999 4.40994L17.9999 10.4099V19.9999H5.99994Z" fill="white"/>
</svg>
