<svg width="20" height="20" viewBox="0 0 20 20" fill="none" xmlns="http://www.w3.org/2000/svg">
<path fill-rule="evenodd" clip-rule="evenodd" d="M3.07324 3.07324C1.23615 4.91033 0.204082 7.40196 0.204082 10C0.204082 12.598 1.23615 15.0897 3.07324 16.9268C4.91033 18.7639 7.40196 19.7959 10 19.7959C12.598 19.7959 15.0897 18.7639 16.9268 16.9268C18.7639 15.0897 19.7959 12.598 19.7959 10C19.7959 7.40196 18.7639 4.91033 16.9268 3.07324C15.0897 1.23615 12.598 0.204082 10 0.204082C7.40196 0.204082 4.91033 1.23615 3.07324 3.07324ZM5.43804 2.74371C6.80453 1.88453 8.38585 1.42866 10 1.42857C11.6141 1.42866 13.1955 1.88453 14.562 2.74371C15.9284 3.60289 17.0246 4.83046 17.7241 6.28514C18.4237 7.73981 18.6983 9.36246 18.5163 10.9663C18.3344 12.5702 17.7032 14.0901 16.6955 15.351C15.8249 13.949 13.9122 12.449 10 12.449C6.08776 12.449 4.17388 13.9502 3.30449 15.351C2.2968 14.0901 1.66565 12.5702 1.48367 10.9663C1.3017 9.36246 1.5763 7.73981 2.27587 6.28514C2.97545 4.83046 4.07156 3.60289 5.43804 2.74371ZM12.5975 10.1486C13.2864 9.45965 13.6735 8.52529 13.6735 7.55102C13.6735 6.57676 13.2864 5.64239 12.5975 4.95349C11.9086 4.26458 10.9743 3.87755 10 3.87755C9.02574 3.87755 8.09137 4.26458 7.40247 4.95349C6.71356 5.64239 6.32653 6.57676 6.32653 7.55102C6.32653 8.52529 6.71356 9.45965 7.40247 10.1486C8.09137 10.8375 9.02574 11.2245 10 11.2245C10.9743 11.2245 11.9086 10.8375 12.5975 10.1486Z" fill="white"/>
<path fill-rule="evenodd" clip-rule="evenodd" d="M10 0.408163C7.45609 0.408163 5.01637 1.41873 3.21755 3.21755C1.41873 5.01637 0.408163 7.45609 0.408163 10C0.408163 12.5439 1.41873 14.9836 3.21755 16.7825C5.01637 18.5813 7.45609 19.5918 10 19.5918C12.5439 19.5918 14.9836 18.5813 16.7825 16.7825C18.5813 14.9836 19.5918 12.5439 19.5918 10C19.5918 7.45609 18.5813 5.01637 16.7825 3.21755C14.9836 1.41873 12.5439 0.408163 10 0.408163ZM2.92893 2.92893C4.8043 1.05357 7.34784 0 10 0C12.6522 0 15.1957 1.05357 17.0711 2.92893C18.9464 4.8043 20 7.34784 20 10C20 12.6522 18.9464 15.1957 17.0711 17.0711C15.1957 18.9464 12.6522 20 10 20C7.34784 20 4.8043 18.9464 2.92893 17.0711C1.05357 15.1957 0 12.6522 0 10C0 7.34784 1.05357 4.8043 2.92893 2.92893ZM5.32942 2.57094C6.72844 1.6913 8.34741 1.22458 9.99999 1.22449C11.6526 1.22458 13.2716 1.6913 14.6706 2.57094C16.0696 3.45058 17.1918 4.70738 17.908 6.19669C18.6243 7.68599 18.9054 9.34728 18.7191 10.9893C18.5328 12.6314 17.8866 14.1874 16.8549 15.4784L16.6746 15.7041L16.5221 15.4587C15.6943 14.1255 13.8529 12.6531 10 12.6531C6.14714 12.6531 4.3045 14.1267 3.47789 15.4586L3.32549 15.7042L3.14506 15.4784C2.11338 14.1874 1.4672 12.6314 1.28089 10.9893C1.09458 9.34728 1.37573 7.68599 2.09196 6.19669C2.80819 4.70738 3.93039 3.45058 5.32942 2.57094ZM9.99999 1.63265C8.42428 1.63274 6.88062 2.07776 5.54667 2.91648C4.21272 3.7552 3.14271 4.95355 2.45979 6.37358C1.77688 7.79362 1.50881 9.37763 1.68645 10.9433C1.85348 12.4155 2.4082 13.8152 3.29163 15.0004C4.26782 13.61 6.247 12.2449 10 12.2449C13.7532 12.2449 15.7313 13.6091 16.7083 15.0005C17.5918 13.8152 18.1465 12.4155 18.3135 10.9433C18.4912 9.37763 18.2231 7.79362 17.5402 6.37358C16.8573 4.95355 15.7873 3.7552 14.4533 2.91648C13.1194 2.07775 11.5757 1.63274 9.99999 1.63265ZM10 4.08163C9.07986 4.08163 8.19741 4.44716 7.54677 5.09779C6.89614 5.74843 6.53061 6.63088 6.53061 7.55102C6.53061 8.47116 6.89614 9.35361 7.54677 10.0042C8.19741 10.6549 9.07986 11.0204 10 11.0204C10.9201 11.0204 11.8026 10.6549 12.4532 10.0042C13.1039 9.35361 13.4694 8.47116 13.4694 7.55102C13.4694 6.63088 13.1039 5.74843 12.4532 5.09779C11.8026 4.44716 10.9201 4.08163 10 4.08163ZM7.25816 4.80918C7.98534 4.082 8.97161 3.67347 10 3.67347C11.0284 3.67347 12.0147 4.082 12.7418 4.80918C13.469 5.53636 13.8776 6.52263 13.8776 7.55102C13.8776 8.57941 13.469 9.56568 12.7418 10.2929C12.0147 11.02 11.0284 11.4286 10 11.4286C8.97161 11.4286 7.98534 11.02 7.25816 10.2929C6.53098 9.56568 6.12245 8.57941 6.12245 7.55102C6.12245 6.52263 6.53098 5.53636 7.25816 4.80918Z" fill="white"/>
</svg>
