<svg width="17" height="16" viewBox="0 0 17 16" fill="none" xmlns="http://www.w3.org/2000/svg">
<path fill-rule="evenodd" clip-rule="evenodd" d="M5.16634 1.1665H3.99967V1.99984H2.33301V12.3332H7.59805C7.73092 12.6798 7.91031 12.9992 8.13615 13.2907C8.38443 13.6112 8.66941 13.8873 8.99098 14.1183C9.31369 14.3501 9.66807 14.5272 10.0534 14.6496C10.439 14.772 10.8379 14.8332 11.2497 14.8332L11.2511 14.8332C11.7929 14.8286 12.3011 14.7247 12.7742 14.52C13.2441 14.3166 13.6586 14.0382 14.0165 13.6848C14.3752 13.3307 14.6563 12.9154 14.8599 12.4405C15.0645 11.9631 15.1664 11.4546 15.1664 10.9165L15.1663 10.9119C15.1573 10.5884 15.1168 10.2714 15.0448 9.96089C14.972 9.64659 14.858 9.34801 14.7031 9.06553C14.5493 8.78516 14.366 8.52713 14.1533 8.29173C13.9594 8.0772 13.7414 7.88369 13.4997 7.71114V1.99984H11.833V1.1665H10.6663V1.99984H5.16634V1.1665ZM3.49967 4.49984V3.1665H3.99967V3.99984H5.16634V3.1665H10.6663V3.99984H11.833V3.1665H12.333V4.49984H3.49967ZM3.49967 11.1665V5.6665H12.333V7.15212C11.9838 7.05054 11.6225 6.99984 11.2497 6.99983L11.2483 6.99984C10.7065 7.00436 10.1982 7.10834 9.72516 7.31302C9.25521 7.51636 8.84072 7.79481 8.48284 8.14816C8.12416 8.5023 7.84301 8.91756 7.63945 9.39252C7.43488 9.86986 7.33301 10.3784 7.33301 10.9165C7.33301 11.0011 7.3352 11.0845 7.33961 11.1665H3.49967ZM10.183 8.3807C10.5123 8.2384 10.867 8.16661 11.2488 8.1665C11.6358 8.17073 11.9932 8.24475 12.3229 8.38721C12.6556 8.53097 12.9461 8.72752 13.1956 8.97706C13.4452 9.2266 13.6417 9.5171 13.7855 9.8498C13.9278 10.1791 13.9996 10.5338 13.9997 10.9156C13.9955 11.3026 13.9214 11.66 13.779 11.9897C13.6352 12.3224 13.4387 12.6129 13.1891 12.8625C12.9396 13.112 12.6491 13.3086 12.3164 13.4523C11.9871 13.5946 11.6324 13.6664 11.2506 13.6665C10.8636 13.6623 10.5062 13.5883 10.1765 13.4458C9.84376 13.302 9.55326 13.1055 9.30372 12.8559C9.05419 12.6064 8.85763 12.3159 8.71387 11.9832C8.57157 11.6539 8.49978 11.2992 8.49967 10.9174C8.5039 10.5304 8.57792 10.173 8.72038 9.84329C8.86414 9.51059 9.0607 9.22009 9.31023 8.97055C9.55977 8.72101 9.85027 8.52446 10.183 8.3807ZM11.833 10.3332V8.6665H10.6663V11.4998H13.083V10.3332H11.833Z" fill="#7C7C7C"/>
</svg>
